<svg width="26" height="21" viewBox="0 0 26 21" fill="none" xmlns="http://www.w3.org/2000/svg">
<path d="M4.47907 12.1726C5.36172 8.75354 9.05152 6.32418 13.2021 6.32418C17.3513 6.32418 21.0411 8.75354 21.9251 12.1726C21.9601 12.3083 22.0605 12.4272 22.2041 12.5031C22.3478 12.5791 22.523 12.6059 22.6912 12.5777C22.8594 12.5494 23.0068 12.4684 23.101 12.3525C23.1952 12.2366 23.2284 12.0953 23.1934 11.9596C22.1878 8.07077 17.9816 5.2802 13.2021 5.2802C8.42253 5.2802 4.21634 8.07077 3.21074 11.9596C3.17573 12.0953 3.20897 12.2366 3.30314 12.3525C3.39731 12.4684 3.5447 12.5494 3.71289 12.5777C3.88109 12.6059 4.0563 12.5791 4.19998 12.5031C4.34367 12.4272 4.44406 12.3083 4.47907 12.1726V12.1726ZM13.1891 8.41216C14.3905 8.41216 15.5426 8.79713 16.3921 9.48238C17.2416 10.1676 17.7189 11.097 17.7189 12.0661C17.7189 13.0352 17.2416 13.9646 16.3921 14.6499C15.5426 15.3351 14.3905 15.7201 13.1891 15.7201C11.9878 15.7201 10.8356 15.3351 9.98611 14.6499C9.13661 13.9646 8.65937 13.0352 8.65937 12.0661C8.65937 11.097 9.13661 10.1676 9.98611 9.48238C10.8356 8.79713 11.9878 8.41216 13.1891 8.41216V8.41216Z" fill="#D7D7D7"/>
</svg>
